<svg xmlns="http://www.w3.org/2000/svg" version="1.1" xmlns:xlink="http://www.w3.org/1999/xlink" xmlns:svgjs="http://svgjs.dev/svgjs" width="430" height="932" preserveAspectRatio="none" viewBox="0 0 430 932"><g mask="url(&quot;#SvgjsMask1048&quot;)" fill="none"><path d="M-62.49 631.02L-62.49 631.02" stroke="rgba(66, 182, 111, 1)" stroke-width="1.5"></path><path d="M-62.49 631.02L52.28 649.14" stroke="rgba(66, 182, 111, 1)" stroke-width="1.5"></path><path d="M-62.49 631.02L-77.14 772.69" stroke="rgba(66, 182, 111, 1)" stroke-width="1.5"></path><path d="M-62.49 631.02L70.57 745.76" stroke="rgba(66, 182, 111, 1)" stroke-width="1.5"></path><path d="M-77.14 772.69L-77.14 772.69" stroke="rgba(66, 182, 111, 1)" stroke-width="1.5"></path><path d="M-77.14 772.69L-38.79 885.31" stroke="rgba(66, 182, 111, 1)" stroke-width="1.5"></path><path d="M-38.79 885.31L-38.79 885.31" stroke="rgba(66, 182, 111, 1)" stroke-width="1.5"></path><path d="M-38.79 885.31L86.86 867.58" stroke="rgba(66, 182, 111, 1)" stroke-width="1.5"></path><path d="M-38.79 885.31L-86.5 1013.66" stroke="rgba(66, 182, 111, 1)" stroke-width="1.5"></path><path d="M-38.79 885.31L71.32 1002.81" stroke="rgba(66, 182, 111, 1)" stroke-width="1.5"></path><path d="M-86.5 1013.66L-86.5 1013.66" stroke="rgba(66, 182, 111, 1)" stroke-width="1.5"></path><path d="M-86.5 1013.66L71.32 1002.81" stroke="rgba(66, 182, 111, 1)" stroke-width="1.5"></path><path d="M-86.5 1013.66L86.86 867.58" stroke="rgba(66, 182, 111, 1)" stroke-width="1.5"></path><path d="M-86.5 1013.66L-77.14 772.69" stroke="rgba(66, 182, 111, 1)" stroke-width="1.5"></path><path d="M52.28 649.14L52.28 649.14" stroke="rgba(66, 182, 111, 1)" stroke-width="1.5"></path><path d="M52.28 649.14L70.57 745.76" stroke="rgba(66, 182, 111, 1)" stroke-width="1.5"></path><path d="M52.28 649.14L195.45 659.76" stroke="rgba(66, 182, 111, 1)" stroke-width="1.5"></path><path d="M70.57 745.76L70.57 745.76" stroke="rgba(66, 182, 111, 1)" stroke-width="1.5"></path><path d="M70.57 745.76L168.27 757.9" stroke="rgba(66, 182, 111, 1)" stroke-width="1.5"></path><path d="M70.57 745.76L86.86 867.58" stroke="rgba(66, 182, 111, 1)" stroke-width="1.5"></path><path d="M70.57 745.76L152.38 859.96" stroke="rgba(66, 182, 111, 1)" stroke-width="1.5"></path><path d="M70.57 745.76L-77.14 772.69" stroke="rgba(66, 182, 111, 1)" stroke-width="1.5"></path><path d="M70.57 745.76L195.45 659.76" stroke="rgba(66, 182, 111, 1)" stroke-width="1.5"></path><path d="M86.86 867.58L86.86 867.58" stroke="rgba(66, 182, 111, 1)" stroke-width="1.5"></path><path d="M86.86 867.58L152.38 859.96" stroke="rgba(66, 182, 111, 1)" stroke-width="1.5"></path><path d="M86.86 867.58L71.32 1002.81" stroke="rgba(66, 182, 111, 1)" stroke-width="1.5"></path><path d="M86.86 867.58L168.27 757.9" stroke="rgba(66, 182, 111, 1)" stroke-width="1.5"></path><path d="M86.86 867.58L182.64 1005.35" stroke="rgba(66, 182, 111, 1)" stroke-width="1.5"></path><path d="M71.32 1002.81L71.32 1002.81" stroke="rgba(66, 182, 111, 1)" stroke-width="1.5"></path><path d="M71.32 1002.81L182.64 1005.35" stroke="rgba(66, 182, 111, 1)" stroke-width="1.5"></path><path d="M71.32 1002.81L152.38 859.96" stroke="rgba(66, 182, 111, 1)" stroke-width="1.5"></path><path d="M71.32 1002.81L290.21 993.75" stroke="rgba(66, 182, 111, 1)" stroke-width="1.5"></path><path d="M178.09 432.09L178.09 432.09" stroke="rgba(66, 182, 111, 1)" stroke-width="1.5"></path><path d="M178.09 432.09L154.21 513.71" stroke="rgba(66, 182, 111, 1)" stroke-width="1.5"></path><path d="M178.09 432.09L301.36 424.79" stroke="rgba(66, 182, 111, 1)" stroke-width="1.5"></path><path d="M178.09 432.09L315.79 551.5" stroke="rgba(66, 182, 111, 1)" stroke-width="1.5"></path><path d="M178.09 432.09L318.84 305.39" stroke="rgba(66, 182, 111, 1)" stroke-width="1.5"></path><path d="M154.21 513.71L154.21 513.71" stroke="rgba(66, 182, 111, 1)" stroke-width="1.5"></path><path d="M195.45 659.76L195.45 659.76" stroke="rgba(66, 182, 111, 1)" stroke-width="1.5"></path><path d="M195.45 659.76L168.27 757.9" stroke="rgba(66, 182, 111, 1)" stroke-width="1.5"></path><path d="M195.45 659.76L317.73 612.46" stroke="rgba(66, 182, 111, 1)" stroke-width="1.5"></path><path d="M195.45 659.76L154.21 513.71" stroke="rgba(66, 182, 111, 1)" stroke-width="1.5"></path><path d="M195.45 659.76L315.79 551.5" stroke="rgba(66, 182, 111, 1)" stroke-width="1.5"></path><path d="M168.27 757.9L168.27 757.9" stroke="rgba(66, 182, 111, 1)" stroke-width="1.5"></path><path d="M168.27 757.9L152.38 859.96" stroke="rgba(66, 182, 111, 1)" stroke-width="1.5"></path><path d="M168.27 757.9L264.89 845.37" stroke="rgba(66, 182, 111, 1)" stroke-width="1.5"></path><path d="M152.38 859.96L152.38 859.96" stroke="rgba(66, 182, 111, 1)" stroke-width="1.5"></path><path d="M152.38 859.96L264.89 845.37" stroke="rgba(66, 182, 111, 1)" stroke-width="1.5"></path><path d="M182.64 1005.35L182.64 1005.35" stroke="rgba(66, 182, 111, 1)" stroke-width="1.5"></path><path d="M182.64 1005.35L290.21 993.75" stroke="rgba(66, 182, 111, 1)" stroke-width="1.5"></path><path d="M182.64 1005.35L152.38 859.96" stroke="rgba(66, 182, 111, 1)" stroke-width="1.5"></path><path d="M182.64 1005.35L264.89 845.37" stroke="rgba(66, 182, 111, 1)" stroke-width="1.5"></path><path d="M314.62 -30.92L314.62 -30.92" stroke="rgba(66, 182, 111, 1)" stroke-width="1.5"></path><path d="M314.62 -30.92L291.09 60.87" stroke="rgba(66, 182, 111, 1)" stroke-width="1.5"></path><path d="M314.62 -30.92L402.47 -82.92" stroke="rgba(66, 182, 111, 1)" stroke-width="1.5"></path><path d="M314.62 -30.92L393.37 48.06" stroke="rgba(66, 182, 111, 1)" stroke-width="1.5"></path><path d="M291.09 60.87L291.09 60.87" stroke="rgba(66, 182, 111, 1)" stroke-width="1.5"></path><path d="M291.09 60.87L393.37 48.06" stroke="rgba(66, 182, 111, 1)" stroke-width="1.5"></path><path d="M265.02 203.85L265.02 203.85" stroke="rgba(66, 182, 111, 1)" stroke-width="1.5"></path><path d="M265.02 203.85L318.84 305.39" stroke="rgba(66, 182, 111, 1)" stroke-width="1.5"></path><path d="M265.02 203.85L395.71 185.93" stroke="rgba(66, 182, 111, 1)" stroke-width="1.5"></path><path d="M318.84 305.39L318.84 305.39" stroke="rgba(66, 182, 111, 1)" stroke-width="1.5"></path><path d="M318.84 305.39L406.8 290.08" stroke="rgba(66, 182, 111, 1)" stroke-width="1.5"></path><path d="M318.84 305.39L301.36 424.79" stroke="rgba(66, 182, 111, 1)" stroke-width="1.5"></path><path d="M318.84 305.39L413.2 387.85" stroke="rgba(66, 182, 111, 1)" stroke-width="1.5"></path><path d="M318.84 305.39L395.71 185.93" stroke="rgba(66, 182, 111, 1)" stroke-width="1.5"></path><path d="M301.36 424.79L301.36 424.79" stroke="rgba(66, 182, 111, 1)" stroke-width="1.5"></path><path d="M301.36 424.79L413.2 387.85" stroke="rgba(66, 182, 111, 1)" stroke-width="1.5"></path><path d="M301.36 424.79L315.79 551.5" stroke="rgba(66, 182, 111, 1)" stroke-width="1.5"></path><path d="M301.36 424.79L418.14 532.49" stroke="rgba(66, 182, 111, 1)" stroke-width="1.5"></path><path d="M315.79 551.5L315.79 551.5" stroke="rgba(66, 182, 111, 1)" stroke-width="1.5"></path><path d="M315.79 551.5L317.73 612.46" stroke="rgba(66, 182, 111, 1)" stroke-width="1.5"></path><path d="M315.79 551.5L418.14 532.49" stroke="rgba(66, 182, 111, 1)" stroke-width="1.5"></path><path d="M317.73 612.46L317.73 612.46" stroke="rgba(66, 182, 111, 1)" stroke-width="1.5"></path><path d="M317.73 612.46L435.77 616.32" stroke="rgba(66, 182, 111, 1)" stroke-width="1.5"></path><path d="M317.73 612.46L418.14 532.49" stroke="rgba(66, 182, 111, 1)" stroke-width="1.5"></path><path d="M317.73 612.46L385.16 750.22" stroke="rgba(66, 182, 111, 1)" stroke-width="1.5"></path><path d="M264.89 845.37L264.89 845.37" stroke="rgba(66, 182, 111, 1)" stroke-width="1.5"></path><path d="M264.89 845.37L290.21 993.75" stroke="rgba(66, 182, 111, 1)" stroke-width="1.5"></path><path d="M290.21 993.75L290.21 993.75" stroke="rgba(66, 182, 111, 1)" stroke-width="1.5"></path><path d="M290.21 993.75L394.14 987.84" stroke="rgba(66, 182, 111, 1)" stroke-width="1.5"></path><path d="M290.21 993.75L431.47 873.58" stroke="rgba(66, 182, 111, 1)" stroke-width="1.5"></path><path d="M290.21 993.75L152.38 859.96" stroke="rgba(66, 182, 111, 1)" stroke-width="1.5"></path><path d="M402.47 -82.92L402.47 -82.92" stroke="rgba(66, 182, 111, 1)" stroke-width="1.5"></path><path d="M402.47 -82.92L496.01 -53.72" stroke="rgba(66, 182, 111, 1)" stroke-width="1.5"></path><path d="M402.47 -82.92L393.37 48.06" stroke="rgba(66, 182, 111, 1)" stroke-width="1.5"></path><path d="M402.47 -82.92L291.09 60.87" stroke="rgba(66, 182, 111, 1)" stroke-width="1.5"></path><path d="M402.47 -82.92L522.07 70.57" stroke="rgba(66, 182, 111, 1)" stroke-width="1.5"></path><path d="M393.37 48.06L393.37 48.06" stroke="rgba(66, 182, 111, 1)" stroke-width="1.5"></path><path d="M393.37 48.06L522.07 70.57" stroke="rgba(66, 182, 111, 1)" stroke-width="1.5"></path><path d="M395.71 185.93L395.71 185.93" stroke="rgba(66, 182, 111, 1)" stroke-width="1.5"></path><path d="M395.71 185.93L406.8 290.08" stroke="rgba(66, 182, 111, 1)" stroke-width="1.5"></path><path d="M395.71 185.93L516.19 159.74" stroke="rgba(66, 182, 111, 1)" stroke-width="1.5"></path><path d="M406.8 290.08L406.8 290.08" stroke="rgba(66, 182, 111, 1)" stroke-width="1.5"></path><path d="M406.8 290.08L413.2 387.85" stroke="rgba(66, 182, 111, 1)" stroke-width="1.5"></path><path d="M406.8 290.08L544.16 278.44" stroke="rgba(66, 182, 111, 1)" stroke-width="1.5"></path><path d="M406.8 290.08L265.02 203.85" stroke="rgba(66, 182, 111, 1)" stroke-width="1.5"></path><path d="M413.2 387.85L413.2 387.85" stroke="rgba(66, 182, 111, 1)" stroke-width="1.5"></path><path d="M418.14 532.49L418.14 532.49" stroke="rgba(66, 182, 111, 1)" stroke-width="1.5"></path><path d="M418.14 532.49L435.77 616.32" stroke="rgba(66, 182, 111, 1)" stroke-width="1.5"></path><path d="M435.77 616.32L435.77 616.32" stroke="rgba(66, 182, 111, 1)" stroke-width="1.5"></path><path d="M435.77 616.32L549.13 614.66" stroke="rgba(66, 182, 111, 1)" stroke-width="1.5"></path><path d="M435.77 616.32L315.79 551.5" stroke="rgba(66, 182, 111, 1)" stroke-width="1.5"></path><path d="M435.77 616.32L385.16 750.22" stroke="rgba(66, 182, 111, 1)" stroke-width="1.5"></path><path d="M435.77 616.32L543.75 501.82" stroke="rgba(66, 182, 111, 1)" stroke-width="1.5"></path><path d="M385.16 750.22L385.16 750.22" stroke="rgba(66, 182, 111, 1)" stroke-width="1.5"></path><path d="M385.16 750.22L431.47 873.58" stroke="rgba(66, 182, 111, 1)" stroke-width="1.5"></path><path d="M431.47 873.58L431.47 873.58" stroke="rgba(66, 182, 111, 1)" stroke-width="1.5"></path><path d="M431.47 873.58L497.51 877.61" stroke="rgba(66, 182, 111, 1)" stroke-width="1.5"></path><path d="M431.47 873.58L394.14 987.84" stroke="rgba(66, 182, 111, 1)" stroke-width="1.5"></path><path d="M394.14 987.84L394.14 987.84" stroke="rgba(66, 182, 111, 1)" stroke-width="1.5"></path><path d="M394.14 987.84L529.32 980.64" stroke="rgba(66, 182, 111, 1)" stroke-width="1.5"></path><path d="M394.14 987.84L497.51 877.61" stroke="rgba(66, 182, 111, 1)" stroke-width="1.5"></path><path d="M394.14 987.84L264.89 845.37" stroke="rgba(66, 182, 111, 1)" stroke-width="1.5"></path><path d="M394.14 987.84L182.64 1005.35" stroke="rgba(66, 182, 111, 1)" stroke-width="1.5"></path><path d="M496.01 -53.72L496.01 -53.72" stroke="rgba(66, 182, 111, 1)" stroke-width="1.5"></path><path d="M496.01 -53.72L522.07 70.57" stroke="rgba(66, 182, 111, 1)" stroke-width="1.5"></path><path d="M522.07 70.57L522.07 70.57" stroke="rgba(66, 182, 111, 1)" stroke-width="1.5"></path><path d="M522.07 70.57L516.19 159.74" stroke="rgba(66, 182, 111, 1)" stroke-width="1.5"></path><path d="M516.19 159.74L516.19 159.74" stroke="rgba(66, 182, 111, 1)" stroke-width="1.5"></path><path d="M544.16 278.44L544.16 278.44" stroke="rgba(66, 182, 111, 1)" stroke-width="1.5"></path><path d="M544.16 278.44L516.19 159.74" stroke="rgba(66, 182, 111, 1)" stroke-width="1.5"></path><path d="M544.16 278.44L539.88 420.42" stroke="rgba(66, 182, 111, 1)" stroke-width="1.5"></path><path d="M544.16 278.44L413.2 387.85" stroke="rgba(66, 182, 111, 1)" stroke-width="1.5"></path><path d="M539.88 420.42L539.88 420.42" stroke="rgba(66, 182, 111, 1)" stroke-width="1.5"></path><path d="M539.88 420.42L543.75 501.82" stroke="rgba(66, 182, 111, 1)" stroke-width="1.5"></path><path d="M539.88 420.42L413.2 387.85" stroke="rgba(66, 182, 111, 1)" stroke-width="1.5"></path><path d="M543.75 501.82L543.75 501.82" stroke="rgba(66, 182, 111, 1)" stroke-width="1.5"></path><path d="M543.75 501.82L549.13 614.66" stroke="rgba(66, 182, 111, 1)" stroke-width="1.5"></path><path d="M543.75 501.82L418.14 532.49" stroke="rgba(66, 182, 111, 1)" stroke-width="1.5"></path><path d="M549.13 614.66L549.13 614.66" stroke="rgba(66, 182, 111, 1)" stroke-width="1.5"></path><path d="M549.13 614.66L546.92 768.23" stroke="rgba(66, 182, 111, 1)" stroke-width="1.5"></path><path d="M549.13 614.66L418.14 532.49" stroke="rgba(66, 182, 111, 1)" stroke-width="1.5"></path><path d="M546.92 768.23L546.92 768.23" stroke="rgba(66, 182, 111, 1)" stroke-width="1.5"></path><path d="M546.92 768.23L497.51 877.61" stroke="rgba(66, 182, 111, 1)" stroke-width="1.5"></path><path d="M546.92 768.23L431.47 873.58" stroke="rgba(66, 182, 111, 1)" stroke-width="1.5"></path><path d="M546.92 768.23L385.16 750.22" stroke="rgba(66, 182, 111, 1)" stroke-width="1.5"></path><path d="M546.92 768.23L435.77 616.32" stroke="rgba(66, 182, 111, 1)" stroke-width="1.5"></path><path d="M546.92 768.23L529.32 980.64" stroke="rgba(66, 182, 111, 1)" stroke-width="1.5"></path><path d="M497.51 877.61L497.51 877.61" stroke="rgba(66, 182, 111, 1)" stroke-width="1.5"></path><path d="M497.51 877.61L529.32 980.64" stroke="rgba(66, 182, 111, 1)" stroke-width="1.5"></path><path d="M497.51 877.61L385.16 750.22" stroke="rgba(66, 182, 111, 1)" stroke-width="1.5"></path><path d="M497.51 877.61L264.89 845.37" stroke="rgba(66, 182, 111, 1)" stroke-width="1.5"></path><path d="M529.32 980.64L529.32 980.64" stroke="rgba(66, 182, 111, 1)" stroke-width="1.5"></path><path d="M529.32 980.64L431.47 873.58" stroke="rgba(66, 182, 111, 1)" stroke-width="1.5"></path><circle r="5" cx="-62.49" cy="631.02" fill="rgba(66, 182, 111, 1)"></circle><circle r="5" cx="-77.14" cy="772.69" fill="rgba(66, 182, 111, 1)"></circle><circle r="5" cx="-38.79" cy="885.31" fill="rgba(66, 182, 111, 1)"></circle><circle r="5" cx="-86.5" cy="1013.66" fill="rgba(66, 182, 111, 1)"></circle><circle r="5" cx="52.28" cy="649.14" fill="rgba(66, 182, 111, 1)"></circle><circle r="5" cx="70.57" cy="745.76" fill="rgba(66, 182, 111, 1)"></circle><circle r="5" cx="86.86" cy="867.58" fill="rgba(66, 182, 111, 1)"></circle><circle r="5" cx="71.32" cy="1002.81" fill="rgba(66, 182, 111, 1)"></circle><circle r="5" cx="178.09" cy="432.09" fill="rgba(66, 182, 111, 1)"></circle><circle r="5" cx="154.21" cy="513.71" fill="rgba(66, 182, 111, 1)"></circle><circle r="5" cx="195.45" cy="659.76" fill="rgba(66, 182, 111, 1)"></circle><circle r="5" cx="168.27" cy="757.9" fill="rgba(66, 182, 111, 1)"></circle><circle r="5" cx="152.38" cy="859.96" fill="rgba(66, 182, 111, 1)"></circle><circle r="5" cx="182.64" cy="1005.35" fill="rgba(66, 182, 111, 1)"></circle><circle r="5" cx="314.62" cy="-30.92" fill="rgba(66, 182, 111, 1)"></circle><circle r="5" cx="291.09" cy="60.87" fill="rgba(66, 182, 111, 1)"></circle><circle r="5" cx="265.02" cy="203.85" fill="rgba(66, 182, 111, 1)"></circle><circle r="5" cx="318.84" cy="305.39" fill="rgba(66, 182, 111, 1)"></circle><circle r="5" cx="301.36" cy="424.79" fill="rgba(66, 182, 111, 1)"></circle><circle r="5" cx="315.79" cy="551.5" fill="rgba(66, 182, 111, 1)"></circle><circle r="5" cx="317.73" cy="612.46" fill="rgba(66, 182, 111, 1)"></circle><circle r="5" cx="264.89" cy="845.37" fill="rgba(66, 182, 111, 1)"></circle><circle r="5" cx="290.21" cy="993.75" fill="rgba(66, 182, 111, 1)"></circle><circle r="5" cx="402.47" cy="-82.92" fill="rgba(66, 182, 111, 1)"></circle><circle r="5" cx="393.37" cy="48.06" fill="rgba(66, 182, 111, 1)"></circle><circle r="5" cx="395.71" cy="185.93" fill="rgba(66, 182, 111, 1)"></circle><circle r="5" cx="406.8" cy="290.08" fill="rgba(66, 182, 111, 1)"></circle><circle r="5" cx="413.2" cy="387.85" fill="rgba(66, 182, 111, 1)"></circle><circle r="5" cx="418.14" cy="532.49" fill="rgba(66, 182, 111, 1)"></circle><circle r="5" cx="435.77" cy="616.32" fill="rgba(66, 182, 111, 1)"></circle><circle r="5" cx="385.16" cy="750.22" fill="rgba(66, 182, 111, 1)"></circle><circle r="5" cx="431.47" cy="873.58" fill="rgba(66, 182, 111, 1)"></circle><circle r="5" cx="394.14" cy="987.84" fill="rgba(66, 182, 111, 1)"></circle><circle r="5" cx="496.01" cy="-53.72" fill="rgba(66, 182, 111, 1)"></circle><circle r="5" cx="522.07" cy="70.57" fill="rgba(66, 182, 111, 1)"></circle><circle r="5" cx="516.19" cy="159.74" fill="rgba(66, 182, 111, 1)"></circle><circle r="5" cx="544.16" cy="278.44" fill="rgba(66, 182, 111, 1)"></circle><circle r="5" cx="539.88" cy="420.42" fill="rgba(66, 182, 111, 1)"></circle><circle r="5" cx="543.75" cy="501.82" fill="rgba(66, 182, 111, 1)"></circle><circle r="5" cx="549.13" cy="614.66" fill="rgba(66, 182, 111, 1)"></circle><circle r="5" cx="546.92" cy="768.23" fill="rgba(66, 182, 111, 1)"></circle><circle r="5" cx="497.51" cy="877.61" fill="rgba(66, 182, 111, 1)"></circle><circle r="5" cx="529.32" cy="980.64" fill="rgba(66, 182, 111, 1)"></circle><path d="M-48.75 786.28L-48.75 786.28" stroke="hsl(143.3, 46.8%, 63.2%)" stroke-width="1.5"></path><path d="M-48.75 786.28L-30.8 850.77" stroke="hsl(143.3, 46.8%, 63.2%)" stroke-width="1.5"></path><path d="M-48.75 786.28L46.96 764.42" stroke="hsl(143.3, 46.8%, 63.2%)" stroke-width="1.5"></path><path d="M-48.75 786.28L41.89 846.13" stroke="hsl(143.3, 46.8%, 63.2%)" stroke-width="1.5"></path><path d="M-48.75 786.28L-43.26 990.98" stroke="hsl(143.3, 46.8%, 63.2%)" stroke-width="1.5"></path><path d="M-48.75 786.28L162.22 779.58" stroke="hsl(143.3, 46.8%, 63.2%)" stroke-width="1.5"></path><path d="M-48.75 786.28L188.41 849.53" stroke="hsl(143.3, 46.8%, 63.2%)" stroke-width="1.5"></path><path d="M-30.8 850.77L-30.8 850.77" stroke="hsl(143.3, 46.8%, 63.2%)" stroke-width="1.5"></path><path d="M-30.8 850.77L41.89 846.13" stroke="hsl(143.3, 46.8%, 63.2%)" stroke-width="1.5"></path><path d="M-30.8 850.77L46.96 764.42" stroke="hsl(143.3, 46.8%, 63.2%)" stroke-width="1.5"></path><path d="M-30.8 850.77L-43.26 990.98" stroke="hsl(143.3, 46.8%, 63.2%)" stroke-width="1.5"></path><path d="M46.96 764.42L46.96 764.42" stroke="hsl(143.3, 46.8%, 63.2%)" stroke-width="1.5"></path><path d="M46.96 764.42L41.89 846.13" stroke="hsl(143.3, 46.8%, 63.2%)" stroke-width="1.5"></path><path d="M46.96 764.42L162.22 779.58" stroke="hsl(143.3, 46.8%, 63.2%)" stroke-width="1.5"></path><path d="M46.96 764.42L188.41 849.53" stroke="hsl(143.3, 46.8%, 63.2%)" stroke-width="1.5"></path><path d="M46.96 764.42L-43.26 990.98" stroke="hsl(143.3, 46.8%, 63.2%)" stroke-width="1.5"></path><path d="M41.89 846.13L41.89 846.13" stroke="hsl(143.3, 46.8%, 63.2%)" stroke-width="1.5"></path><path d="M162.22 779.58L162.22 779.58" stroke="hsl(143.3, 46.8%, 63.2%)" stroke-width="1.5"></path><path d="M162.22 779.58L188.41 849.53" stroke="hsl(143.3, 46.8%, 63.2%)" stroke-width="1.5"></path><path d="M182.95 987.72L182.95 987.72" stroke="hsl(143.3, 46.8%, 63.2%)" stroke-width="1.5"></path><path d="M182.95 987.72L264.21 994.59" stroke="hsl(143.3, 46.8%, 63.2%)" stroke-width="1.5"></path><path d="M182.95 987.72L79.7 1006.35" stroke="hsl(143.3, 46.8%, 63.2%)" stroke-width="1.5"></path><path d="M182.95 987.72L188.41 849.53" stroke="hsl(143.3, 46.8%, 63.2%)" stroke-width="1.5"></path><path d="M182.95 987.72L320.23 863.66" stroke="hsl(143.3, 46.8%, 63.2%)" stroke-width="1.5"></path><path d="M295.85 612.74L295.85 612.74" stroke="hsl(143.3, 46.8%, 63.2%)" stroke-width="1.5"></path><path d="M295.85 612.74L283.08 549.42" stroke="hsl(143.3, 46.8%, 63.2%)" stroke-width="1.5"></path><path d="M295.85 612.74L393.18 652.34" stroke="hsl(143.3, 46.8%, 63.2%)" stroke-width="1.5"></path><path d="M295.85 612.74L418.42 550.33" stroke="hsl(143.3, 46.8%, 63.2%)" stroke-width="1.5"></path><path d="M295.85 612.74L301.51 762.31" stroke="hsl(143.3, 46.8%, 63.2%)" stroke-width="1.5"></path><path d="M295.85 612.74L430.79 735.55" stroke="hsl(143.3, 46.8%, 63.2%)" stroke-width="1.5"></path><path d="M295.85 612.74L385.42 421.02" stroke="hsl(143.3, 46.8%, 63.2%)" stroke-width="1.5"></path><path d="M301.51 762.31L301.51 762.31" stroke="hsl(143.3, 46.8%, 63.2%)" stroke-width="1.5"></path><path d="M301.51 762.31L320.23 863.66" stroke="hsl(143.3, 46.8%, 63.2%)" stroke-width="1.5"></path><path d="M301.51 762.31L430.79 735.55" stroke="hsl(143.3, 46.8%, 63.2%)" stroke-width="1.5"></path><path d="M301.51 762.31L162.22 779.58" stroke="hsl(143.3, 46.8%, 63.2%)" stroke-width="1.5"></path><path d="M301.51 762.31L188.41 849.53" stroke="hsl(143.3, 46.8%, 63.2%)" stroke-width="1.5"></path><path d="M301.51 762.31L393.18 652.34" stroke="hsl(143.3, 46.8%, 63.2%)" stroke-width="1.5"></path><path d="M537.61 -53.91L537.61 -53.91" stroke="hsl(143.3, 46.8%, 63.2%)" stroke-width="1.5"></path><path d="M537.61 -53.91L381.73 -49.38" stroke="hsl(143.3, 46.8%, 63.2%)" stroke-width="1.5"></path><path d="M537.61 -53.91L548.62 200.03" stroke="hsl(143.3, 46.8%, 63.2%)" stroke-width="1.5"></path><path d="M511.51 730.4L511.51 730.4" stroke="hsl(143.3, 46.8%, 63.2%)" stroke-width="1.5"></path><path d="M511.51 730.4L430.79 735.55" stroke="hsl(143.3, 46.8%, 63.2%)" stroke-width="1.5"></path><path d="M511.51 730.4L520.61 860.85" stroke="hsl(143.3, 46.8%, 63.2%)" stroke-width="1.5"></path><path d="M511.51 730.4L393.18 652.34" stroke="hsl(143.3, 46.8%, 63.2%)" stroke-width="1.5"></path><path d="M520.61 860.85L520.61 860.85" stroke="hsl(143.3, 46.8%, 63.2%)" stroke-width="1.5"></path><path d="M520.61 860.85L387.4 890.31" stroke="hsl(143.3, 46.8%, 63.2%)" stroke-width="1.5"></path><path d="M499.11 1006.62L499.11 1006.62" stroke="hsl(143.3, 46.8%, 63.2%)" stroke-width="1.5"></path><path d="M499.11 1006.62L392.14 989.55" stroke="hsl(143.3, 46.8%, 63.2%)" stroke-width="1.5"></path><path d="M499.11 1006.62L520.61 860.85" stroke="hsl(143.3, 46.8%, 63.2%)" stroke-width="1.5"></path><path d="M-43.26 990.98L-43.26 990.98" stroke="hsl(143.3, 46.8%, 63.2%)" stroke-width="1.5"></path><path d="M-43.26 990.98L79.7 1006.35" stroke="hsl(143.3, 46.8%, 63.2%)" stroke-width="1.5"></path><path d="M79.7 1006.35L79.7 1006.35" stroke="hsl(143.3, 46.8%, 63.2%)" stroke-width="1.5"></path><path d="M79.7 1006.35L41.89 846.13" stroke="hsl(143.3, 46.8%, 63.2%)" stroke-width="1.5"></path><path d="M79.7 1006.35L264.21 994.59" stroke="hsl(143.3, 46.8%, 63.2%)" stroke-width="1.5"></path><path d="M188.41 849.53L188.41 849.53" stroke="hsl(143.3, 46.8%, 63.2%)" stroke-width="1.5"></path><path d="M188.41 849.53L320.23 863.66" stroke="hsl(143.3, 46.8%, 63.2%)" stroke-width="1.5"></path><path d="M297.45 386.17L297.45 386.17" stroke="hsl(143.3, 46.8%, 63.2%)" stroke-width="1.5"></path><path d="M297.45 386.17L385.42 421.02" stroke="hsl(143.3, 46.8%, 63.2%)" stroke-width="1.5"></path><path d="M297.45 386.17L425.79 296.62" stroke="hsl(143.3, 46.8%, 63.2%)" stroke-width="1.5"></path><path d="M297.45 386.17L283.08 549.42" stroke="hsl(143.3, 46.8%, 63.2%)" stroke-width="1.5"></path><path d="M283.08 549.42L283.08 549.42" stroke="hsl(143.3, 46.8%, 63.2%)" stroke-width="1.5"></path><path d="M283.08 549.42L418.42 550.33" stroke="hsl(143.3, 46.8%, 63.2%)" stroke-width="1.5"></path><path d="M320.23 863.66L320.23 863.66" stroke="hsl(143.3, 46.8%, 63.2%)" stroke-width="1.5"></path><path d="M320.23 863.66L387.4 890.31" stroke="hsl(143.3, 46.8%, 63.2%)" stroke-width="1.5"></path><path d="M320.23 863.66L264.21 994.59" stroke="hsl(143.3, 46.8%, 63.2%)" stroke-width="1.5"></path><path d="M264.21 994.59L264.21 994.59" stroke="hsl(143.3, 46.8%, 63.2%)" stroke-width="1.5"></path><path d="M264.21 994.59L392.14 989.55" stroke="hsl(143.3, 46.8%, 63.2%)" stroke-width="1.5"></path><path d="M381.73 -49.38L381.73 -49.38" stroke="hsl(143.3, 46.8%, 63.2%)" stroke-width="1.5"></path><path d="M381.73 -49.38L402.47 190.88" stroke="hsl(143.3, 46.8%, 63.2%)" stroke-width="1.5"></path><path d="M381.73 -49.38L548.62 200.03" stroke="hsl(143.3, 46.8%, 63.2%)" stroke-width="1.5"></path><path d="M381.73 -49.38L425.79 296.62" stroke="hsl(143.3, 46.8%, 63.2%)" stroke-width="1.5"></path><path d="M402.47 190.88L402.47 190.88" stroke="hsl(143.3, 46.8%, 63.2%)" stroke-width="1.5"></path><path d="M402.47 190.88L425.79 296.62" stroke="hsl(143.3, 46.8%, 63.2%)" stroke-width="1.5"></path><path d="M402.47 190.88L548.62 200.03" stroke="hsl(143.3, 46.8%, 63.2%)" stroke-width="1.5"></path><path d="M402.47 190.88L297.45 386.17" stroke="hsl(143.3, 46.8%, 63.2%)" stroke-width="1.5"></path><path d="M402.47 190.88L385.42 421.02" stroke="hsl(143.3, 46.8%, 63.2%)" stroke-width="1.5"></path><path d="M425.79 296.62L425.79 296.62" stroke="hsl(143.3, 46.8%, 63.2%)" stroke-width="1.5"></path><path d="M425.79 296.62L385.42 421.02" stroke="hsl(143.3, 46.8%, 63.2%)" stroke-width="1.5"></path><path d="M425.79 296.62L548.62 200.03" stroke="hsl(143.3, 46.8%, 63.2%)" stroke-width="1.5"></path><path d="M425.79 296.62L533.21 426.82" stroke="hsl(143.3, 46.8%, 63.2%)" stroke-width="1.5"></path><path d="M385.42 421.02L385.42 421.02" stroke="hsl(143.3, 46.8%, 63.2%)" stroke-width="1.5"></path><path d="M418.42 550.33L418.42 550.33" stroke="hsl(143.3, 46.8%, 63.2%)" stroke-width="1.5"></path><path d="M418.42 550.33L501.32 517.02" stroke="hsl(143.3, 46.8%, 63.2%)" stroke-width="1.5"></path><path d="M418.42 550.33L393.18 652.34" stroke="hsl(143.3, 46.8%, 63.2%)" stroke-width="1.5"></path><path d="M393.18 652.34L393.18 652.34" stroke="hsl(143.3, 46.8%, 63.2%)" stroke-width="1.5"></path><path d="M393.18 652.34L430.79 735.55" stroke="hsl(143.3, 46.8%, 63.2%)" stroke-width="1.5"></path><path d="M430.79 735.55L430.79 735.55" stroke="hsl(143.3, 46.8%, 63.2%)" stroke-width="1.5"></path><path d="M387.4 890.31L387.4 890.31" stroke="hsl(143.3, 46.8%, 63.2%)" stroke-width="1.5"></path><path d="M387.4 890.31L392.14 989.55" stroke="hsl(143.3, 46.8%, 63.2%)" stroke-width="1.5"></path><path d="M387.4 890.31L301.51 762.31" stroke="hsl(143.3, 46.8%, 63.2%)" stroke-width="1.5"></path><path d="M387.4 890.31L430.79 735.55" stroke="hsl(143.3, 46.8%, 63.2%)" stroke-width="1.5"></path><path d="M392.14 989.55L392.14 989.55" stroke="hsl(143.3, 46.8%, 63.2%)" stroke-width="1.5"></path><path d="M548.62 200.03L548.62 200.03" stroke="hsl(143.3, 46.8%, 63.2%)" stroke-width="1.5"></path><path d="M548.62 200.03L533.21 426.82" stroke="hsl(143.3, 46.8%, 63.2%)" stroke-width="1.5"></path><path d="M548.62 200.03L385.42 421.02" stroke="hsl(143.3, 46.8%, 63.2%)" stroke-width="1.5"></path><path d="M533.21 426.82L533.21 426.82" stroke="hsl(143.3, 46.8%, 63.2%)" stroke-width="1.5"></path><path d="M533.21 426.82L501.32 517.02" stroke="hsl(143.3, 46.8%, 63.2%)" stroke-width="1.5"></path><path d="M533.21 426.82L385.42 421.02" stroke="hsl(143.3, 46.8%, 63.2%)" stroke-width="1.5"></path><path d="M501.32 517.02L501.32 517.02" stroke="hsl(143.3, 46.8%, 63.2%)" stroke-width="1.5"></path><path d="M501.32 517.02L385.42 421.02" stroke="hsl(143.3, 46.8%, 63.2%)" stroke-width="1.5"></path><path d="M501.32 517.02L393.18 652.34" stroke="hsl(143.3, 46.8%, 63.2%)" stroke-width="1.5"></path><path d="M501.32 517.02L511.51 730.4" stroke="hsl(143.3, 46.8%, 63.2%)" stroke-width="1.5"></path><circle r="25" cx="-48.75" cy="786.28" fill="url(&quot;#SvgjsRadialGradient1049&quot;)"></circle><circle r="25" cx="-30.8" cy="850.77" fill="url(&quot;#SvgjsRadialGradient1049&quot;)"></circle><circle r="25" cx="46.96" cy="764.42" fill="url(&quot;#SvgjsRadialGradient1049&quot;)"></circle><circle r="25" cx="41.89" cy="846.13" fill="url(&quot;#SvgjsRadialGradient1049&quot;)"></circle><circle r="25" cx="162.22" cy="779.58" fill="url(&quot;#SvgjsRadialGradient1049&quot;)"></circle><circle r="25" cx="182.95" cy="987.72" fill="url(&quot;#SvgjsRadialGradient1049&quot;)"></circle><circle r="25" cx="295.85" cy="612.74" fill="url(&quot;#SvgjsRadialGradient1049&quot;)"></circle><circle r="25" cx="301.51" cy="762.31" fill="url(&quot;#SvgjsRadialGradient1049&quot;)"></circle><circle r="25" cx="537.61" cy="-53.91" fill="url(&quot;#SvgjsRadialGradient1049&quot;)"></circle><circle r="25" cx="511.51" cy="730.4" fill="url(&quot;#SvgjsRadialGradient1049&quot;)"></circle><circle r="25" cx="520.61" cy="860.85" fill="url(&quot;#SvgjsRadialGradient1049&quot;)"></circle><circle r="25" cx="499.11" cy="1006.62" fill="url(&quot;#SvgjsRadialGradient1049&quot;)"></circle><circle r="5" cx="-43.26" cy="990.98" fill="#a1dbb7"></circle><circle r="5" cx="79.7" cy="1006.35" fill="#a1dbb7"></circle><circle r="5" cx="188.41" cy="849.53" fill="#a1dbb7"></circle><circle r="5" cx="297.45" cy="386.17" fill="#a1dbb7"></circle><circle r="5" cx="283.08" cy="549.42" fill="#a1dbb7"></circle><circle r="5" cx="320.23" cy="863.66" fill="#a1dbb7"></circle><circle r="5" cx="264.21" cy="994.59" fill="#a1dbb7"></circle><circle r="5" cx="381.73" cy="-49.38" fill="#a1dbb7"></circle><circle r="5" cx="402.47" cy="190.88" fill="#a1dbb7"></circle><circle r="5" cx="425.79" cy="296.62" fill="#a1dbb7"></circle><circle r="5" cx="385.42" cy="421.02" fill="#a1dbb7"></circle><circle r="5" cx="418.42" cy="550.33" fill="#a1dbb7"></circle><circle r="5" cx="393.18" cy="652.34" fill="#a1dbb7"></circle><circle r="5" cx="430.79" cy="735.55" fill="#a1dbb7"></circle><circle r="5" cx="387.4" cy="890.31" fill="#a1dbb7"></circle><circle r="5" cx="392.14" cy="989.55" fill="#a1dbb7"></circle><circle r="5" cx="548.62" cy="200.03" fill="#a1dbb7"></circle><circle r="5" cx="533.21" cy="426.82" fill="#a1dbb7"></circle><circle r="5" cx="501.32" cy="517.02" fill="#a1dbb7"></circle></g><defs><mask id="SvgjsMask1048"><rect width="430" height="932" fill="#ffffff"></rect></mask><radialGradient id="SvgjsRadialGradient1049"><stop stop-color="#ffffff" offset="0.1"></stop><stop stop-color="rgba(66, 182, 111, 1)" offset="0.2"></stop><stop stop-color="rgba(66, 182, 111, 0)" offset="1"></stop></radialGradient></defs></svg>